<?xml version="1.0" standalone="no"?>
<!DOCTYPE svg PUBLIC "-//W3C//DTD SVG 20010904//EN"
 "http://www.w3.org/TR/2001/REC-SVG-20010904/DTD/svg10.dtd">
<svg version="1.0" xmlns="http://www.w3.org/2000/svg"
 width="860.000000pt" height="89.000000pt" viewBox="0 0 860.000000 89.000000"
 preserveAspectRatio="xMidYMid meet">
<metadata>
Created by potrace 1.13, written by Peter Selinger 2001-2015
</metadata>
<g transform="translate(0.000000,89.000000) scale(0.100000,-0.100000)"
fill="#000000" stroke="none">
<path d="M0 445 l0 -445 150 0 150 0 0 60 0 60 -70 0 -70 0 0 330 0 330 70 0
70 0 0 55 0 55 -150 0 -150 0 0 -445z"/>
<path d="M2990 835 l0 -55 65 0 65 0 0 -330 0 -330 -65 0 -65 0 0 -60 0 -60
150 0 150 0 0 445 0 445 -150 0 -150 0 0 -55z"/>
<path d="M3738 859 c-123 -18 -213 -85 -266 -199 -35 -73 -43 -221 -18 -302
54 -169 231 -270 420 -239 134 22 213 73 263 168 84 158 64 346 -48 468 -55
59 -120 92 -206 105 -37 5 -72 9 -78 9 -5 -1 -36 -5 -67 -10z m179 -175 c59
-44 82 -197 48 -312 -40 -132 -204 -154 -289 -39 -19 25 -21 42 -21 157 0 114
2 132 21 156 63 85 159 100 241 38z"/>
<path d="M5638 859 c-123 -18 -213 -85 -266 -199 -35 -73 -43 -221 -18 -302
54 -169 231 -270 420 -239 134 22 213 73 263 168 84 158 64 346 -48 468 -55
59 -120 92 -206 105 -37 5 -72 9 -78 9 -5 -1 -36 -5 -67 -10z m179 -175 c59
-44 82 -197 48 -312 -40 -132 -204 -154 -289 -39 -19 25 -21 42 -21 157 0 114
2 132 21 156 63 85 159 100 241 38z"/>
<path d="M2493 850 c-57 -18 -157 -93 -190 -143 -39 -59 -53 -101 -60 -188
-13 -162 57 -291 199 -366 50 -26 61 -28 178 -28 96 0 139 4 183 19 l57 19 0
79 c0 44 -3 78 -7 76 -157 -80 -287 -78 -362 7 -33 38 -46 83 -46 165 0 119
36 183 120 216 66 25 177 16 240 -19 26 -15 49 -27 51 -27 2 0 4 35 4 78 l0
79 -52 17 c-62 21 -267 31 -315 16z"/>
<path d="M8177 847 c-91 -30 -147 -108 -147 -204 0 -110 60 -169 209 -208 108
-29 160 -54 167 -82 15 -60 -51 -110 -130 -98 -70 10 -140 27 -166 40 -70 35
-70 35 -70 -54 l0 -80 95 -21 c137 -32 267 -26 350 15 81 41 110 91 110 190 0
127 -52 178 -231 223 -61 15 -123 36 -138 45 -32 21 -34 55 -6 85 18 19 31 22
98 22 71 0 173 -17 215 -35 15 -6 17 0 17 68 l0 75 -47 12 c-69 18 -279 23
-326 7z"/>
<path d="M810 491 l0 -361 95 0 95 0 0 135 0 135 51 0 c46 0 55 -4 85 -35 18
-19 54 -80 81 -135 l48 -100 97 0 97 0 -24 55 c-57 129 -108 218 -144 253
l-38 36 39 28 c57 42 78 82 78 152 0 80 -32 136 -97 167 -44 21 -64 23 -255
27 l-208 4 0 -361z m350 199 c43 -43 34 -110 -20 -137 -14 -7 -51 -13 -82 -13
l-58 0 0 85 0 85 70 0 c56 0 74 -4 90 -20z"/>
<path d="M1590 490 l0 -360 255 0 255 0 0 70 0 70 -160 0 -160 0 0 80 0 80
150 0 151 0 -3 68 -3 67 -147 3 -148 3 0 69 0 69 153 3 152 3 3 68 3 67 -251
0 -250 0 0 -360z"/>
<path d="M4370 490 l0 -360 90 0 90 0 1 208 c0 114 3 225 7 246 7 39 8 37 84
-140 l76 -179 63 0 63 0 76 177 c41 97 78 180 83 184 4 4 7 -106 7 -244 l0
-252 90 0 90 0 0 360 0 361 -121 -3 -120 -3 -81 -183 c-48 -107 -85 -179 -90
-174 -5 5 -44 88 -87 183 l-77 174 -122 3 -122 3 0 -361z"/>
<path d="M6120 841 c0 -5 56 -162 125 -348 69 -186 128 -344 130 -350 3 -10
36 -13 118 -13 l114 0 131 355 c73 195 132 357 132 360 0 3 -41 5 -90 5 -84 0
-91 -2 -101 -22 -5 -13 -47 -126 -93 -253 -46 -126 -87 -229 -92 -229 -5 1
-50 113 -100 250 l-90 249 -92 3 c-54 2 -92 -1 -92 -7z"/>
<path d="M6970 490 l0 -360 95 0 95 0 0 360 0 360 -95 0 -95 0 0 -360z"/>
<path d="M7350 490 l0 -360 255 0 255 0 0 70 0 70 -160 0 -160 0 0 80 0 80
150 0 151 0 -3 68 -3 67 -147 3 -148 3 0 69 0 70 155 0 155 0 0 70 0 70 -250
0 -250 0 0 -360z"/>
</g>
<g transform="translate(0.000000,89.000000) scale(0.100000,-0.100000)"
fill="#ff0000" stroke="none">
<path d="M427 666 c-190 -70 -157 -355 43 -374 138 -13 246 107 211 235 -15
57 -51 107 -92 129 -43 22 -117 27 -162 10z"/>
</g>
</svg>
